<svg width="14" height="10" viewBox="0 0 14 10" fill="none" xmlns="http://www.w3.org/2000/svg">
<path d="M7.03125 10C5.63542 10 4.44792 9.51562 3.46875 8.54688C2.48958 7.57812 2 6.39583 2 5V4.89062L1 5.89062L0.125 5.01563L2.625 2.51562L5.125 5.01563L4.25 5.89062L3.25 4.89062V5C3.25 6.04167 3.61719 6.92708 4.35156 7.65625C5.08594 8.38542 5.97917 8.75 7.03125 8.75C7.30208 8.75 7.56771 8.71875 7.82812 8.65625C8.08854 8.59375 8.34375 8.5 8.59375 8.375L9.53125 9.3125C9.13542 9.54167 8.72917 9.71354 8.3125 9.82812C7.89583 9.94271 7.46875 10 7.03125 10ZM11.375 7.48438L8.875 4.98438L9.75 4.10938L10.75 5.10938V5C10.75 3.95833 10.3828 3.07292 9.64844 2.34375C8.91406 1.61458 8.02083 1.25 6.96875 1.25C6.69792 1.25 6.43229 1.28125 6.17188 1.34375C5.91146 1.40625 5.65625 1.5 5.40625 1.625L4.46875 0.6875C4.86458 0.458333 5.27083 0.286458 5.6875 0.171875C6.10417 0.0572917 6.53125 0 6.96875 0C8.36458 0 9.55208 0.484375 10.5312 1.45312C11.5104 2.42188 12 3.60417 12 5V5.10938L13 4.10938L13.875 4.98438L11.375 7.48438Z" fill="#A1A1AA"/>
</svg>
